<?xml version="1.0" encoding="UTF-8" standalone="no"?>
<!-- Created with Inkscape (http://www.inkscape.org/) -->

<svg
   version="1.1"
   id="svg1"
   width="1349.3333"
   height="1349.3333"
   viewBox="0 0 1349.3333 1349.3333"
   xmlns="http://www.w3.org/2000/svg"
   xmlns:svg="http://www.w3.org/2000/svg">
  <defs
     id="defs1" />
  <path
     id="path2"
     style="display:inline;fill:#6e56af;fill-opacity:1;stroke:none;stroke-width:6;stroke-linecap:round;stroke-linejoin:round;stroke-dasharray:none;stroke-opacity:1"
     d="m 1315.2424,554.23954 c -39.5171,-178.60526 -180.943,-266.29398 -283.947,-205.2141 -17.2404,10.22329 -30.0102,27.01248 -31.38801,15.29575 -3.48335,-29.62137 -6.67774,-125.59523 -105.12587,-163.59175 -73.14202,-28.22951 -129.08677,-8.04328 -186.64146,55.65026 -7.09291,7.84945 -17.43739,4.92329 -44.69363,-16.81087 C 637.61674,218.9722 594.04178,208.00724 562.94535,205.67225 346.55556,189.42381 171.55073,318.39925 73.486532,500.7641 c -74.14069997,128.41546 -85.572,333.9883 23.1106,514.0125 143.643198,237.9336 413.144248,151.6188 361.490998,-43.50349 -13.67528,-51.65894 -48.27181,-86.83956 -39.9776,-118.90059 2.41289,-9.32694 13.67804,-27.67361 33.11703,-34.29715 26.17839,-8.91989 64.0031,-4.63297 64.0031,-4.63297 -18.61166,47.72014 -10.42729,175.03845 60.97717,260.1392 107.9345,136.045 298.28441,65.3444 270.48597,-148.98638 -3.13295,-24.15559 -15.47668,-67.33986 -5.92706,-57.94242 16.21883,15.96036 78.37949,35.95428 100.88137,26.73128 29.40768,-12.05353 0.26616,49.81662 17.88316,123.72162 16.44134,68.9729 63.09943,131.9622 116.67323,141.1587 238.7979,40.9923 289.4448,-376.2011 239.0379,-604.02486 z" />
  <path
     id="path197"
     style="display:inline;fill:#ffffff;fill-opacity:1;stroke:none;stroke-width:6;stroke-linecap:round;stroke-linejoin:round;stroke-dasharray:none;stroke-opacity:1"
     d="m 1059.9383,696.34052 c -65.303,70.99042 -88.39544,234.3911 -220.25508,130.83875 -43.26815,-36.2038 -74.54617,-113.64699 -54.24675,-258.62191 -16.70413,10.4047 -24.76501,87.45978 -21.28843,132.22081 7.89538,101.65319 34.73437,136.58754 43.6799,196.47463 42.98971,287.8006 -219.60583,245.8828 -253.92766,46.04538 -14.01601,-81.60761 1.74575,-134.29493 5.82124,-134.91207 29.26391,-4.43132 110.35991,-52.57599 125.15025,-143.77751 6.09575,-37.58815 -3.72001,-95.1946 -43.7736,-131.18558 -22.05097,-19.81435 15.56362,-3.4087 53.05323,-67.02451 41.99968,-71.26891 14.42718,-121.62215 27.22584,-149.51231 80.18876,-174.74299 245.53448,-91.57801 239.74868,93.09541 -24.26112,46.49517 -46.68267,97.25068 -44.02825,152.36043 2.19099,45.48821 30.4936,-201.21137 206.98693,-183.59999 73.5536,7.33955 186.1696,109.16292 171.2719,375.08117 -34.1378,609.34628 -468.00038,366.56578 -235.4182,-57.4827 z" />
  <path
     id="path199"
     style="display:inline;fill:#ffffff;fill-opacity:1;stroke:none;stroke-width:6;stroke-linecap:round;stroke-linejoin:round;stroke-dasharray:none;stroke-opacity:1"
     d="m 375.5986,881.8895 c 4.50976,16.86648 10.92457,31.84277 25.35552,60.28789 C 507.74424,1152.6734 186.88653,1224.8739 76.291432,873.98766 55.100632,806.75543 -8.078968,602.97709 225.28773,367.85047 392.50616,199.37101 660.53725,213.5468 680.21196,337.38391 c 31.91973,200.91001 -242.31259,147.84444 -367.78283,249.7883 -23.55494,19.13826 120.603,-40.43094 200.20426,-45.53036 155.45755,-9.95893 155.35968,116.55386 114.20247,175.19019 -18.14302,25.84821 -43.45116,42.0015 -73.88248,48.52049 -56.77514,12.16235 -126.42137,3.19379 -165.70257,48.42791 -16.71204,19.24469 -18.73989,41.60121 -11.65221,68.10906 z" />
</svg>
