<svg width="394.1" height="96.401" viewBox="0 0 394.1 96.401" xmlns="http://www.w3.org/2000/svg"><g id="svgGroup" stroke-linecap="round" fill-rule="evenodd" font-size="9pt" stroke="#ffffff" stroke-width="0.25mm" fill="#ffffff" style="stroke:#ffffff;stroke-width:0.25mm;fill:#ffffff"><path d="M 288 94.5 L 288 78.3 Q 290.3 79.1 292.25 79.55 Q 294.2 80 295.8 80 Q 297.9 80 299.3 79.25 Q 300.7 78.5 301.5 76.9 Q 302.3 75.3 302.5 73 L 283.4 20.4 L 302.9 20.4 L 312.9 53.5 L 321 20.4 L 338.7 20.4 L 320.9 79.3 Q 319.4 84.4 316 88.25 Q 312.6 92.1 307.9 94.25 Q 303.2 96.4 297.8 96.4 Q 295.3 96.4 292.85 95.95 Q 290.4 95.5 288 94.5 Z M 52.9 38.4 L 52.9 73 L 33.9 73 L 33.9 43.4 Q 33.9 39.5 32.15 37.75 Q 30.4 36 28.1 36 Q 26.5 36 24.7 36.95 Q 22.9 37.9 21.4 39.6 Q 19.9 41.3 19 43.5 L 19 73 L 0 73 L 0 20.4 L 17.1 20.4 L 17.1 28.2 Q 19 25.3 21.9 23.35 Q 24.8 21.4 28.6 20.4 Q 32.4 19.4 36.9 19.4 Q 42.3 19.4 45.5 21.3 Q 48.7 23.2 50.3 26.2 Q 51.9 29.2 52.4 32.45 Q 52.9 35.7 52.9 38.4 Z M 175.5 64.8 L 175.5 73 L 159 73 L 159 0 L 178 0 L 178 28.2 Q 180.3 23.9 184.5 21.65 Q 188.7 19.4 194.4 19.4 Q 199.2 19.4 203.3 21.45 Q 207.4 23.5 210.45 27.2 Q 213.5 30.9 215.2 35.95 Q 216.9 41 216.9 46.9 Q 216.9 52.7 215.05 57.65 Q 213.2 62.6 209.95 66.3 Q 206.7 70 202.25 72 Q 197.8 74 192.5 74 Q 186.6 74 182.3 71.65 Q 178 69.3 175.5 64.8 Z M 240.2 64.8 L 240.2 73 L 223.7 73 L 223.7 0 L 242.7 0 L 242.7 28.2 Q 245 23.9 249.2 21.65 Q 253.4 19.4 259.1 19.4 Q 263.9 19.4 268 21.45 Q 272.1 23.5 275.15 27.2 Q 278.2 30.9 279.9 35.95 Q 281.6 41 281.6 46.9 Q 281.6 52.7 279.75 57.65 Q 277.9 62.6 274.65 66.3 Q 271.4 70 266.95 72 Q 262.5 74 257.2 74 Q 251.3 74 247 71.65 Q 242.7 69.3 240.2 64.8 Z M 385.3 85.7 L 366.3 85.7 L 366.3 73.3 L 340.6 73.3 L 340.6 56.3 L 372.3 15.9 L 385.3 15.9 L 385.3 56.3 L 394.1 56.3 L 394.1 73.3 L 385.3 73.3 L 385.3 85.7 Z M 61.7 58.8 L 61.7 0 L 80.7 0 L 80.7 52.1 Q 80.7 55 81.95 56.55 Q 83.2 58.1 85.6 58.1 Q 86.8 58.1 88.2 57.7 Q 89.6 57.3 90.8 56.6 L 93.2 70.6 Q 89.8 72.2 85.55 73.1 Q 81.3 74 77.5 74 Q 69.9 74 65.8 70.05 Q 61.7 66.1 61.7 58.8 Z M 123.5 74 Q 116.5 74 111.1 71.8 Q 105.7 69.6 102.05 65.75 Q 98.4 61.9 96.55 57 Q 94.7 52.1 94.7 46.7 Q 94.7 41.3 96.55 36.35 Q 98.4 31.4 102.05 27.6 Q 105.7 23.8 111.1 21.6 Q 116.5 19.4 123.5 19.4 Q 130.6 19.4 135.95 21.6 Q 141.3 23.8 144.95 27.6 Q 148.6 31.4 150.45 36.35 Q 152.3 41.3 152.3 46.7 Q 152.3 52.1 150.45 57 Q 148.6 61.9 144.95 65.75 Q 141.3 69.6 135.95 71.8 Q 130.6 74 123.5 74 Z M 178 43.2 L 178 52.6 Q 178.9 53.9 179.95 54.95 Q 181 56 182.1 56.65 Q 183.2 57.3 184.45 57.65 Q 185.7 58 187 58 Q 189.3 58 191.2 57.2 Q 193.1 56.4 194.5 54.95 Q 195.9 53.5 196.65 51.5 Q 197.4 49.5 197.4 47 Q 197.4 43.8 196.15 41.15 Q 194.9 38.5 192.75 36.95 Q 190.6 35.4 187.8 35.4 Q 185.8 35.4 183.9 36.4 Q 182 37.4 180.45 39.15 Q 178.9 40.9 178 43.2 Z M 242.7 43.2 L 242.7 52.6 Q 243.6 53.9 244.65 54.95 Q 245.7 56 246.8 56.65 Q 247.9 57.3 249.15 57.65 Q 250.4 58 251.7 58 Q 254 58 255.9 57.2 Q 257.8 56.4 259.2 54.95 Q 260.6 53.5 261.35 51.5 Q 262.1 49.5 262.1 47 Q 262.1 43.8 260.85 41.15 Q 259.6 38.5 257.45 36.95 Q 255.3 35.4 252.5 35.4 Q 250.5 35.4 248.6 36.4 Q 246.7 37.4 245.15 39.15 Q 243.6 40.9 242.7 43.2 Z M 114.2 46.7 Q 114.2 50.2 115.4 52.75 Q 116.6 55.3 118.7 56.65 Q 120.8 58 123.5 58 Q 126.2 58 128.3 56.65 Q 130.4 55.3 131.6 52.75 Q 132.8 50.2 132.8 46.7 Q 132.8 43.2 131.6 40.65 Q 130.4 38.1 128.3 36.75 Q 126.2 35.4 123.5 35.4 Q 120.8 35.4 118.7 36.75 Q 116.6 38.1 115.4 40.65 Q 114.2 43.2 114.2 46.7 Z M 368.5 44.3 L 359.3 56.3 L 368.5 56.3 L 368.5 44.3 Z" vector-effect="non-scaling-stroke"/></g></svg>
