<svg width="1024" height="1024" viewBox="0 0 128 128" xmlns="http://www.w3.org/2000/svg">
  <g id="svgGroup" transform="translate(20.2, 40.4) scale(0.78)" stroke-linecap="round" fill-rule="evenodd" stroke="#ffffff" stroke-width="0.25mm" fill="#ffffff" style="stroke:#ffffff;stroke-width:0.25mm;fill:#ffffff">
    <path d="M 52.9 22.5 L 52.9 57.1 L 33.9 57.1 L 33.9 27.5 Q 33.9 25.179 33.28 23.62 A 5.157 5.157 0 0 0 32.15 21.85 A 6.182 6.182 0 0 0 30.451 20.623 A 5.375 5.375 0 0 0 28.1 20.1 A 6.173 6.173 0 0 0 26.357 20.364 Q 25.652 20.571 24.912 20.941 A 10.8 10.8 0 0 0 24.7 21.05 A 11.202 11.202 0 0 0 22.169 22.897 A 13.452 13.452 0 0 0 21.4 23.7 Q 19.9 25.4 19 27.6 L 19 57.1 L 0 57.1 L 0 4.5 L 17.1 4.5 L 17.1 12.3 Q 19 9.4 21.9 7.45 A 20.8 20.8 0 0 1 26.52 5.143 A 25.194 25.194 0 0 1 28.6 4.5 A 30.164 30.164 0 0 1 33.623 3.641 A 37.172 37.172 0 0 1 36.9 3.5 Q 40.724 3.5 43.445 4.453 A 11.382 11.382 0 0 1 45.5 5.4 A 13.405 13.405 0 0 1 48.665 7.965 A 11.802 11.802 0 0 1 50.3 10.3 Q 51.9 13.3 52.4 16.55 Q 52.9 19.8 52.9 22.5 Z M 103.5 69.8 L 84.5 69.8 L 84.5 57.4 L 58.8 57.4 L 58.8 40.4 L 90.5 0 L 103.5 0 L 103.5 40.4 L 112.3 40.4 L 112.3 57.4 L 103.5 57.4 L 103.5 69.8 Z M 86.7 28.4 L 77.5 40.4 L 86.7 40.4 L 86.7 28.4 Z" vector-effect="non-scaling-stroke"/>
  </g>
</svg>
